<?xml version="1.0" encoding="UTF-8"?>
<svg id="Layer_1" data-name="Layer 1" xmlns="http://www.w3.org/2000/svg" viewBox="0 0 636.6 636.6">
  <defs>
    <style>
      .cls-1 {
        stroke-miterlimit: 10;
      }

      .cls-1, .cls-2 {
        fill: none;
        stroke: #000;
      }

      .cls-3 {
        fill: #f6f6f6;
      }

      .cls-2 {
        stroke-linecap: round;
        stroke-linejoin: round;
        stroke-width: 5px;
      }

      .cls-4 {
        opacity: .3;
      }
    </style>
  </defs>
  <rect class="cls-3" width="636.6" height="636.6"/>
  <g>
    <line class="cls-2" x1="231.6" y1="145" x2="216.4" y2="130.7"/>
    <line class="cls-2" x1="216.8" y1="145.5" x2="231.1" y2="130.3"/>
  </g>
  <g>
    <line class="cls-2" x1="249.1" y1="364.5" x2="233.9" y2="350.2"/>
    <line class="cls-2" x1="234.4" y1="364.9" x2="248.7" y2="349.7"/>
  </g>
  <g>
    <line class="cls-2" x1="63.5" y1="487.1" x2="48.3" y2="472.8"/>
    <line class="cls-2" x1="48.8" y1="487.5" x2="63.1" y2="472.3"/>
  </g>
  <g>
    <line class="cls-2" x1="56.9" y1="124.2" x2="41.6" y2="109.8"/>
    <line class="cls-2" x1="42.1" y1="124.6" x2="56.4" y2="109.4"/>
  </g>
  <g>
    <line class="cls-2" x1="599.3" y1="144.7" x2="584.1" y2="130.4"/>
    <line class="cls-2" x1="584.5" y1="145.1" x2="598.8" y2="129.9"/>
  </g>
  <g>
    <line class="cls-2" x1="419.4" y1="222.5" x2="404.1" y2="208.2"/>
    <line class="cls-2" x1="404.6" y1="222.9" x2="418.9" y2="207.7"/>
  </g>
  <g>
    <line class="cls-2" x1="493.7" y1="392.3" x2="478.5" y2="378"/>
    <line class="cls-2" x1="479" y1="392.7" x2="493.3" y2="377.5"/>
  </g>
  <g>
    <line class="cls-2" x1="481.9" y1="530.6" x2="466.6" y2="516.3"/>
    <line class="cls-2" x1="467.1" y1="531.1" x2="481.4" y2="515.8"/>
  </g>
  <polygon class="cls-2" points="345 167.9 334.4 149.8 324 167.9 313.5 186.1 334.5 186.1 355.5 186.1 345 167.9"/>
  <polygon class="cls-2" points="310.2 389.9 299.7 371.8 289.3 389.9 278.8 408.1 299.8 408.1 320.7 408.1 310.2 389.9"/>
  <polygon class="cls-2" points="430.6 458.1 420.1 439.9 409.6 458.1 399.1 476.3 420.1 476.3 441.1 476.3 430.6 458.1"/>
  <polygon class="cls-2" points="499.8 318.7 505.2 298.4 485 303.9 464.7 309.3 479.5 324.1 494.4 338.9 499.8 318.7"/>
  <polygon class="cls-2" points="154.9 83.4 160.3 63.1 140 68.6 119.8 74 134.6 88.8 149.5 103.6 154.9 83.4"/>
  <polygon class="cls-2" points="140.5 521.3 145.9 501 125.7 506.5 105.4 511.9 120.3 526.7 135.1 541.6 140.5 521.3"/>
  <polygon class="cls-2" points="521 106 539.2 95.5 521 85.1 502.9 74.6 502.9 95.5 502.9 116.5 521 106"/>
  <polygon class="cls-2" points="140 315.6 158.2 305.1 140 294.6 121.9 284.1 121.9 305.1 121.9 326.1 140 315.6"/>
  <path class="cls-2" d="M380.4,281.2c0,8.8-7.1,15.9-15.9,15.9s-15.9-7.1-15.9-15.9,7.1-15.9,15.9-15.9,15.9,7.1,15.9,15.9Z"/>
  <path class="cls-2" d="M300,103.6c0,8.8-7.1,15.9-15.9,15.9s-15.9-7.1-15.9-15.9,7.1-15.9,15.9-15.9,15.9,7.1,15.9,15.9Z"/>
  <path class="cls-2" d="M310.2,573.3c0,8.8-7.1,15.9-15.9,15.9s-15.9-7.1-15.9-15.9,7.1-15.9,15.9-15.9,15.9,7.1,15.9,15.9Z"/>
  <path class="cls-2" d="M352.7,549.5c0-8.8,7.1-15.9,15.9-15.9s15.9,7.1,15.9,15.9"/>
  <path class="cls-2" d="M225.7,305.1c0-8.8,7.1-15.9,15.9-15.9s15.9,7.1,15.9,15.9"/>
  <path class="cls-2" d="M58.3,175.9c0-8.8,7.1-15.9,15.8-15.9s15.8,7.1,15.8,15.9"/>
  <path class="cls-2" d="M459.4,202c-8.8,0-15.9-7.1-15.9-15.8s7.1-15.8,15.9-15.8"/>
  <path class="cls-2" d="M76.2,573.2c-8.8,0-15.9-7.1-15.9-15.8s7.1-15.8,15.9-15.8"/>
  <path class="cls-2" d="M247,67.1c-8.8,0-15.9-7.1-15.9-15.8s7.1-15.8,15.9-15.8"/>
  <path class="cls-2" d="M84.2,405.9c0,8.8-7.1,15.9-15.9,15.9s-15.9-7.1-15.9-15.9,7.1-15.9,15.9-15.9,15.9,7.1,15.9,15.9Z"/>
  <path class="cls-2" d="M574.9,424c0,8.8-7.1,15.9-15.9,15.9s-15.9-7.1-15.9-15.9,7.1-15.9,15.9-15.9,15.9,7.1,15.9,15.9Z"/>
  <rect class="cls-2" x="530.9" y="170.3" width="31.7" height="31.7"/>
  <rect class="cls-2" x="173" y="186.1" width="31.7" height="31.7"/>
  <rect class="cls-2" x="171.4" y="388.2" width="31.7" height="31.7"/>
  <rect class="cls-2" x="530.9" y="541.6" width="31.7" height="31.7"/>
  <rect class="cls-2" x="399.6" y="35.5" width="31.7" height="31.7"/>
  <g>
    <path class="cls-2" d="M354.1,357.3c-6.9,0-5.7-12.3-14.5-12.3"/>
    <path class="cls-2" d="M383.2,357.3c-6.9,0-5.7-12.3-14.5-12.3"/>
    <path class="cls-2" d="M354.1,357.3c6.9,0,5.7-12.3,14.5-12.3"/>
    <path class="cls-2" d="M383.2,357.3c6.9,0,5.7-12.3,14.5-12.3"/>
  </g>
  <g>
    <path class="cls-2" d="M436.9,585.6c-6.9,0-5.7-12.3-14.5-12.3"/>
    <path class="cls-2" d="M466,585.6c-6.9,0-5.7-12.3-14.5-12.3"/>
    <path class="cls-2" d="M436.9,585.6c6.9,0,5.7-12.3,14.5-12.3"/>
    <path class="cls-2" d="M466,585.6c6.9,0,5.7-12.3,14.5-12.3"/>
  </g>
  <g>
    <path class="cls-2" d="M476.6,256.5c-6.9,0-5.7-12.3-14.5-12.3"/>
    <path class="cls-2" d="M505.6,256.5c-6.9,0-5.7-12.3-14.5-12.3"/>
    <path class="cls-2" d="M476.6,256.5c6.9,0,5.7-12.3,14.5-12.3"/>
    <path class="cls-2" d="M505.6,256.5c6.9,0,5.7-12.3,14.5-12.3"/>
  </g>
  <g>
    <path class="cls-2" d="M72.3,241.7c-6.9,0-5.7-12.3-14.5-12.3"/>
    <path class="cls-2" d="M101.3,241.7c-6.9,0-5.7-12.3-14.5-12.3"/>
    <path class="cls-2" d="M72.3,241.7c6.9,0,5.7-12.3,14.5-12.3"/>
    <path class="cls-2" d="M101.3,241.7c6.9,0,5.7-12.3,14.5-12.3"/>
  </g>
  <g>
    <path class="cls-2" d="M356.5,77.6c0,6.9-12.3,5.7-12.3,14.5"/>
    <path class="cls-2" d="M356.5,48.6c0,6.9-12.3,5.7-12.3,14.5"/>
    <path class="cls-2" d="M356.5,77.6c0-6.9-12.3-5.7-12.3-14.5"/>
    <path class="cls-2" d="M356.5,48.6c0-6.9-12.3-5.7-12.3-14.5"/>
  </g>
  <g>
    <path class="cls-2" d="M267.4,229.7c0,6.9-12.3,5.7-12.3,14.5"/>
    <path class="cls-2" d="M267.4,200.6c0,6.9-12.3,5.7-12.3,14.5"/>
    <path class="cls-2" d="M267.4,229.7c0-6.9-12.3-5.7-12.3-14.5"/>
    <path class="cls-2" d="M267.4,200.6c0-6.9-12.3-5.7-12.3-14.5"/>
  </g>
  <g>
    <path class="cls-2" d="M509,472.6c0,6.9-12.3,5.7-12.3,14.5"/>
    <path class="cls-2" d="M509,443.6c0,6.9-12.3,5.7-12.3,14.5"/>
    <path class="cls-2" d="M509,472.6c0-6.9-12.3-5.7-12.3-14.5"/>
    <path class="cls-2" d="M509,443.6c0-6.9-12.3-5.7-12.3-14.5"/>
  </g>
  <g>
    <path class="cls-2" d="M209.2,495.6c0,6.9-12.3,5.7-12.3,14.5"/>
    <path class="cls-2" d="M209.2,466.5c0,6.9-12.3,5.7-12.3,14.5"/>
    <path class="cls-2" d="M209.2,495.6c0-6.9-12.3-5.7-12.3-14.5"/>
    <path class="cls-2" d="M209.2,466.5c0-6.9-12.3-5.7-12.3-14.5"/>
  </g>
  <line class="cls-2" x1="388.9" y1="389.9" x2="424.8" y2="389.9"/>
  <line class="cls-2" x1="36.3" y1="286.3" x2="72.2" y2="286.3"/>
  <line class="cls-2" x1="391.6" y1="119.6" x2="427.5" y2="119.6"/>
  <line class="cls-2" x1="533" y1="38.6" x2="568.9" y2="38.6"/>
  <line class="cls-2" x1="179.3" y1="573.2" x2="215.2" y2="573.2"/>
  <line class="cls-2" x1="271.4" y1="503.9" x2="296.8" y2="478.6"/>
  <line class="cls-2" x1="61.4" y1="64" x2="86.8" y2="38.6"/>
  <line class="cls-2" x1="550.9" y1="324" x2="576.3" y2="298.6"/>
  <g class="cls-4">
    <polygon class="cls-1" points="367.8 181.3 357.3 163.1 346.8 181.3 336.3 199.5 357.3 199.5 378.3 199.4 367.8 181.3"/>
    <polygon class="cls-1" points="333 403.3 322.5 385.1 312.1 403.3 301.6 421.5 322.6 421.5 343.5 421.4 333 403.3"/>
    <polygon class="cls-1" points="453.4 471.5 442.9 453.3 432.4 471.5 421.9 489.6 442.9 489.6 463.9 489.6 453.4 471.5"/>
    <polygon class="cls-1" points="522.6 332 528 311.8 507.8 317.2 487.5 322.7 502.4 337.5 517.2 352.3 522.6 332"/>
    <polygon class="cls-1" points="177.7 96.7 183.1 76.5 162.9 81.9 142.6 87.4 157.4 102.2 172.3 117 177.7 96.7"/>
    <polygon class="cls-1" points="163.3 534.7 168.7 514.4 148.5 519.8 128.2 525.3 143.1 540.1 157.9 554.9 163.3 534.7"/>
    <polygon class="cls-1" points="543.9 119.4 562 108.9 543.9 98.4 525.7 87.9 525.7 108.9 525.7 129.9 543.9 119.4"/>
    <polygon class="cls-1" points="162.9 328.9 181 318.4 162.8 308 144.7 297.5 144.7 318.5 144.7 339.4 162.9 328.9"/>
    <path class="cls-1" d="M403.2,294.6c0,8.8-7.1,15.9-15.9,15.9s-15.9-7.1-15.9-15.9,7.1-15.9,15.9-15.9,15.9,7.1,15.9,15.9Z"/>
    <path class="cls-1" d="M322.8,117c0,8.8-7.1,15.9-15.9,15.9s-15.9-7.1-15.9-15.9,7.1-15.9,15.9-15.9,15.9,7.1,15.9,15.9Z"/>
    <path class="cls-1" d="M333,586.7c0,8.8-7.1,15.9-15.9,15.9s-15.9-7.1-15.9-15.9,7.1-15.9,15.9-15.9,15.9,7.1,15.9,15.9Z"/>
    <path class="cls-1" d="M375.5,562.9c0-8.8,7.1-15.9,15.9-15.9s15.9,7.1,15.9,15.9"/>
    <path class="cls-1" d="M248.5,318.5c0-8.8,7.1-15.9,15.9-15.9s15.9,7.1,15.9,15.9"/>
    <path class="cls-1" d="M81.1,189.3c0-8.8,7.1-15.9,15.8-15.9s15.8,7.1,15.8,15.9"/>
    <path class="cls-1" d="M482.2,215.3c-8.8,0-15.9-7.1-15.9-15.8s7.1-15.8,15.9-15.8"/>
    <path class="cls-1" d="M99,586.6c-8.8,0-15.9-7.1-15.9-15.8s7.1-15.8,15.9-15.8"/>
    <path class="cls-1" d="M269.8,80.5c-8.8,0-15.9-7.1-15.9-15.8s7.1-15.8,15.9-15.8"/>
    <path class="cls-1" d="M107,419.2c0,8.8-7.1,15.9-15.9,15.9s-15.9-7.1-15.9-15.9,7.1-15.9,15.9-15.9,15.9,7.1,15.9,15.9Z"/>
    <path class="cls-1" d="M597.7,437.4c0,8.8-7.1,15.9-15.9,15.9s-15.9-7.1-15.9-15.9,7.1-15.9,15.9-15.9,15.9,7.1,15.9,15.9Z"/>
    <rect class="cls-1" x="553.7" y="183.6" width="31.7" height="31.7"/>
    <rect class="cls-1" x="195.8" y="199.5" width="31.7" height="31.7"/>
    <rect class="cls-1" x="194.2" y="401.6" width="31.7" height="31.7"/>
    <rect class="cls-1" x="553.7" y="554.9" width="31.7" height="31.7"/>
    <rect class="cls-1" x="422.4" y="48.8" width="31.7" height="31.7"/>
    <g>
      <path class="cls-1" d="M376.9,370.7c-6.9,0-5.7-12.3-14.5-12.3"/>
      <path class="cls-1" d="M406,370.7c-6.9,0-5.7-12.3-14.5-12.3"/>
      <path class="cls-1" d="M376.9,370.7c6.9,0,5.7-12.3,14.5-12.3"/>
      <path class="cls-1" d="M406,370.7c6.9,0,5.7-12.3,14.5-12.3"/>
    </g>
    <g>
      <path class="cls-1" d="M459.7,598.9c-6.9,0-5.7-12.3-14.5-12.3"/>
      <path class="cls-1" d="M488.8,598.9c-6.9,0-5.7-12.3-14.5-12.3"/>
      <path class="cls-1" d="M459.7,598.9c6.9,0,5.7-12.3,14.5-12.3"/>
      <path class="cls-1" d="M488.8,598.9c6.9,0,5.7-12.3,14.5-12.3"/>
    </g>
    <g>
      <path class="cls-1" d="M499.4,269.9c-6.9,0-5.7-12.3-14.5-12.3"/>
      <path class="cls-1" d="M528.4,269.9c-6.9,0-5.7-12.3-14.5-12.3"/>
      <path class="cls-1" d="M499.4,269.9c6.9,0,5.7-12.3,14.5-12.3"/>
      <path class="cls-1" d="M528.4,269.9c6.9,0,5.7-12.3,14.5-12.3"/>
    </g>
    <g>
      <path class="cls-1" d="M95.1,255.1c-6.9,0-5.7-12.3-14.5-12.3"/>
      <path class="cls-1" d="M124.2,255.1c-6.9,0-5.7-12.3-14.5-12.3"/>
      <path class="cls-1" d="M95.1,255.1c6.9,0,5.7-12.3,14.5-12.3"/>
      <path class="cls-1" d="M124.2,255.1c6.9,0,5.7-12.3,14.5-12.3"/>
    </g>
    <g>
      <path class="cls-1" d="M379.3,91c0,6.9-12.3,5.7-12.3,14.5"/>
      <path class="cls-1" d="M379.3,61.9c0,6.9-12.3,5.7-12.3,14.5"/>
      <path class="cls-1" d="M379.3,91c0-6.9-12.3-5.7-12.3-14.5"/>
      <path class="cls-1" d="M379.3,61.9c0-6.9-12.3-5.7-12.3-14.5"/>
    </g>
    <g>
      <path class="cls-1" d="M290.2,243.1c0,6.9-12.3,5.7-12.3,14.5"/>
      <path class="cls-1" d="M290.2,214c0,6.9-12.3,5.7-12.3,14.5"/>
      <path class="cls-1" d="M290.2,243.1c0-6.9-12.3-5.7-12.3-14.5"/>
      <path class="cls-1" d="M290.2,214c0-6.9-12.3-5.7-12.3-14.5"/>
    </g>
    <g>
      <path class="cls-1" d="M531.8,486c0,6.9-12.3,5.7-12.3,14.5"/>
      <path class="cls-1" d="M531.8,456.9c0,6.9-12.3,5.7-12.3,14.5"/>
      <path class="cls-1" d="M531.8,486c0-6.9-12.3-5.7-12.3-14.5"/>
      <path class="cls-1" d="M531.8,456.9c0-6.9-12.3-5.7-12.3-14.5"/>
    </g>
    <g>
      <path class="cls-1" d="M232,508.9c0,6.9-12.3,5.7-12.3,14.5"/>
      <path class="cls-1" d="M232,479.8c0,6.9-12.3,5.7-12.3,14.5"/>
      <path class="cls-1" d="M232,508.9c0-6.9-12.3-5.7-12.3-14.5"/>
      <path class="cls-1" d="M232,479.8c0-6.9-12.3-5.7-12.3-14.5"/>
    </g>
    <line class="cls-1" x1="411.7" y1="403.3" x2="447.6" y2="403.3"/>
    <line class="cls-1" x1="59.1" y1="299.6" x2="95" y2="299.6"/>
    <line class="cls-1" x1="414.4" y1="132.9" x2="450.3" y2="132.9"/>
    <line class="cls-1" x1="555.8" y1="52" x2="591.7" y2="52"/>
    <line class="cls-1" x1="202.1" y1="586.6" x2="238" y2="586.6"/>
    <line class="cls-1" x1="294.2" y1="517.3" x2="319.6" y2="491.9"/>
    <line class="cls-1" x1="84.3" y1="77.3" x2="109.6" y2="52"/>
    <line class="cls-1" x1="573.7" y1="337.3" x2="599.1" y2="312"/>
  </g>
  <path class="cls-2" d="M362.9,474.9c-2.9,1.8-6.8,1-8.6-2-1.8-2.9-1-6.8,2-8.6,2.9-1.8,6.8-1,8.6,2,1.8,2.9,1,6.8-2,8.6Z"/>
  <path class="cls-2" d="M313.5,302.4c-2.9,1.8-6.8,1-8.6-2-1.8-2.9-1-6.8,2-8.6,2.9-1.8,6.8-1,8.6,2,1.8,2.9,1,6.8-2,8.6Z"/>
  <path class="cls-2" d="M87.6,355.5c-2.9,1.8-6.8,1-8.6-2-1.8-2.9-1-6.8,2-8.6,2.9-1.8,6.8-1,8.6,2,1.8,2.9,1,6.8-2,8.6Z"/>
  <path class="cls-2" d="M151.8,158.2c-2.9,1.8-6.8,1-8.6-2-1.8-2.9-1-6.8,2-8.6,2.9-1.8,6.8-1,8.6,2,1.8,2.9,1,6.8-2,8.6Z"/>
  <path class="cls-2" d="M496.6,155.1c-2.9,1.8-6.8,1-8.6-2-1.8-2.9-1-6.8,2-8.6,2.9-1.8,6.8-1,8.6,2,1.8,2.9,1,6.8-2,8.6Z"/>
  <path class="cls-2" d="M585.1,378.4c-2.9,1.8-6.8,1-8.6-2-1.8-2.9-1-6.8,2-8.6,2.9-1.8,6.8-1,8.6,2,1.8,2.9,1,6.8-2,8.6Z"/>
</svg>